<svg fill="#000000" xmlns="http://www.w3.org/2000/svg" xmlns:xlink="http://www.w3.org/1999/xlink" version="1.1" x="0px" y="0px" viewBox="0 0 100 100" style="enable-background:new 0 0 100 100;" xml:space="preserve">
    <g>
        <path d="M73,8H27c-5.5,0-10,4.5-10,10v64c0,5.5,4.5,10,10,10h46c5.5,0,10-4.5,10-10V18C83,12.5,78.5,8,73,8z M79,82   c0,3.3-2.7,6-6,6H27c-3.3,0-6-2.7-6-6V18c0-3.3,2.7-6,6-6h46c3.3,0,6,2.7,6,6V82z"/>
        <path d="M32,53c-1.1,0-2,0.9-2,2s0.9,2,2,2h20c1.1,0,2-0.9,2-2s-0.9-2-2-2H32z"/>
        <path d="M68,64H32c-1.1,0-2,0.9-2,2s0.9,2,2,2h36c1.1,0,2-0.9,2-2S69.1,64,68,64z"/>
        <path d="M52,75H32c-1.1,0-2,0.9-2,2s0.9,2,2,2h20c1.1,0,2-0.9,2-2S53.1,75,52,75z"/>
        <path d="M39.6,43.9c0.4,0.4,0.9,0.6,1.4,0.6s1-0.2,1.4-0.6l8.1-8.1c1.4-1.4,2.2-3.4,2.2-5.4c0-2-0.8-4-2.2-5.4   c-2.6-2.6-6.5-2.9-9.5-1.1c-1.2-0.8-2.6-1.2-4.1-1.2c-2,0-4,0.8-5.4,2.2c-3,3-3,7.8,0,10.8L39.6,43.9z M34.3,27.8   c0.7-0.7,1.6-1.1,2.6-1.1s1.9,0.4,2.6,1.1l0.1,0.1c0.8,0.8,2,0.8,2.8,0l0.1-0.1c1.4-1.4,3.7-1.4,5.1,0c0.7,0.7,1.1,1.6,1.1,2.6  s-0.4,1.9-1.1,2.6L41,39.6L34.3,33C32.9,31.5,32.9,29.2,34.3,27.8z"/>
    </g>
</svg>
